<svg id="Layer_1" data-name="Layer 1" xmlns="http://www.w3.org/2000/svg" viewBox="0 0 1920.37 118.91"><defs><style>.cls-1{fill:#fec0e5;}.cls-2,.cls-3{fill:none;stroke:#f7f8fa;}.cls-2{stroke-width:2px;}</style></defs><rect class="cls-1" x="0.81" y="2.07" width="1919" height="115"/><path class="cls-2" d="M717,15.5S640.2,68.32,584,79.65c-79.5,16-124.68-45.18-204.86-33.4-57,8.37-81.47,44.93-138.61,52.48C152.07,110.41,84.15-15.77,17.84,46.25A122.72,122.72,0,0,0,0,66.39" transform="translate(0.81 2.07)"/><path class="cls-3" d="M731,11S652.7,69.47,595.4,82c-81,17.74-127.11-50-208.86-37-58.15,9.28-83.05,49.75-141.31,58.11C155,116.08,85.8-23.62,18.18,45A133.25,133.25,0,0,0,0,67.35" transform="translate(0.81 2.07)"/><path class="cls-3" d="M1919-1s-78.3,59.23-135.6,71.94c-81.05,18-127.11-50.66-208.86-37.46-58.15,9.4-83,50.4-141.31,58.86-90.19,13.11-159.44-128.41-227-58.86-7.79,8-39.84,73-46.18,82.52" transform="translate(0.81 2.07)"/><path class="cls-2" d="M1919-1.25s-76.8,52.82-133,64.15c-79.5,16-124.68-45.18-204.86-33.4-57,8.37-81.47,44.93-138.61,52.48-88.46,11.68-153.48-109-222.69-52.48-30.42,24.83-44.62,78.24-50.84,86.75" transform="translate(0.81 2.07)"/></svg>