<svg width="26" height="25" viewBox="0 0 26 25" fill="none" xmlns="http://www.w3.org/2000/svg">
<path d="M1 1H3.13629C4.46226 1 5.50585 2.0695 5.39535 3.3L4.37632 14.754C4.33653 15.1977 4.39558 15.6444 4.54972 16.0656C4.70386 16.4869 4.94974 16.8735 5.27177 17.2011C5.5938 17.5287 5.98496 17.7901 6.42047 17.9686C6.85598 18.1472 7.32634 18.2391 7.80175 18.2385H20.8773C22.6453 18.2385 24.1923 16.8815 24.3273 15.237L24.9903 6.612C25.1376 4.703 23.5907 3.1505 21.5403 3.1505H5.69002M9.59427 7.9H24.3273M18.4955 24C18.9025 24 19.2929 23.8486 19.5807 23.579C19.8685 23.3094 20.0302 22.9437 20.0302 22.5625C20.0302 22.1813 19.8685 21.8156 19.5807 21.546C19.2929 21.2764 18.9025 21.125 18.4955 21.125C18.0885 21.125 17.6981 21.2764 17.4103 21.546C17.1225 21.8156 16.9608 22.1813 16.9608 22.5625C16.9608 22.9437 17.1225 23.3094 17.4103 23.579C17.6981 23.8486 18.0885 24 18.4955 24ZM8.67346 24C9.08048 24 9.47084 23.8486 9.75865 23.579C10.0465 23.3094 10.2081 22.9437 10.2081 22.5625C10.2081 22.1813 10.0465 21.8156 9.75865 21.546C9.47084 21.2764 9.08048 21.125 8.67346 21.125C8.26643 21.125 7.87608 21.2764 7.58826 21.546C7.30045 21.8156 7.13876 22.1813 7.13876 22.5625C7.13876 22.9437 7.30045 23.3094 7.58826 23.579C7.87608 23.8486 8.26643 24 8.67346 24Z" stroke="black" stroke-width="2" stroke-miterlimit="10" stroke-linecap="round" stroke-linejoin="round"/>
</svg>
