<svg width="24" height="25" viewBox="0 0 24 25" fill="none" xmlns="http://www.w3.org/2000/svg">
<path d="M11.3684 0C8.68834 0 6.11803 1.05357 4.22292 2.92893C2.32782 4.8043 1.26316 7.34784 1.26316 10V12.375C0.882105 12.7036 0.573352 13.1061 0.356061 13.5577C0.138769 14.0092 0.017575 14.5002 0 15C0.0287714 15.7248 0.278132 16.4241 0.715406 17.0063C1.15268 17.5884 1.75747 18.0263 2.45053 18.2625C4.09263 22.15 7.38947 25 11.3684 25H15.1579V22.5H11.3684C8.51368 22.5 5.92421 20.375 4.62316 17.0125L4.35789 16.325L3.61263 16.25C3.30912 16.2075 3.03157 16.0573 2.8317 15.8274C2.63184 15.5974 2.5233 15.3033 2.52632 15C2.52765 14.7819 2.58664 14.5679 2.69744 14.3793C2.80824 14.1907 2.96698 14.0341 3.15789 13.925L3.78947 13.5625V11.25C3.78947 10.9185 3.92256 10.6005 4.15944 10.3661C4.39633 10.1317 4.71762 10 5.05263 10H17.6842C18.0192 10 18.3405 10.1317 18.5774 10.3661C18.8143 10.6005 18.9474 10.9185 18.9474 11.25V17.5H13.7811C13.6664 17.1818 13.467 16.9001 13.2039 16.6848C12.9408 16.4695 12.6238 16.3286 12.2864 16.2769C11.949 16.2252 11.6038 16.2646 11.2872 16.3911C10.9706 16.5175 10.6945 16.7263 10.4879 16.9953C10.2813 17.2642 10.152 17.5835 10.1137 17.9192C10.0753 18.2549 10.1293 18.5946 10.27 18.9024C10.4107 19.2102 10.6328 19.4747 10.9128 19.6679C11.1929 19.8611 11.5205 19.9759 11.8611 20H21.4737C22.1437 20 22.7863 19.7366 23.2601 19.2678C23.7338 18.7989 24 18.163 24 17.5V15C24 14.337 23.7338 13.7011 23.2601 13.2322C22.7863 12.7634 22.1437 12.5 21.4737 12.5V10C21.4737 7.34784 20.409 4.8043 18.5139 2.92893C16.6188 1.05357 14.0485 0 11.3684 0Z" fill="black"/>
</svg>
