<svg width="25" height="25" viewBox="0 0 25 25" fill="none" xmlns="http://www.w3.org/2000/svg">
<path d="M12.5007 22.9166C18.2538 22.9166 22.9173 18.253 22.9173 12.4999C22.9173 6.74679 18.2538 2.08325 12.5007 2.08325C6.74753 2.08325 2.08398 6.74679 2.08398 12.4999C2.08398 18.253 6.74753 22.9166 12.5007 22.9166Z" stroke="black" stroke-width="1.5" stroke-linecap="round" stroke-linejoin="round"/>
<path d="M8.33331 3.125H9.37497C7.34376 9.20997 7.34376 15.79 9.37497 21.875H8.33331M15.625 3.125C17.6562 9.20997 17.6562 15.79 15.625 21.875" stroke="black" stroke-width="1.5" stroke-linecap="round" stroke-linejoin="round"/>
<path d="M3.125 16.6666V15.625C9.20997 17.6562 15.79 17.6562 21.875 15.625V16.6666M3.125 9.37497C9.20997 7.34376 15.79 7.34376 21.875 9.37497" stroke="black" stroke-width="1.5" stroke-linecap="round" stroke-linejoin="round"/>
</svg>
