<svg width="24" height="24" viewBox="0 0 24 24" fill="none" xmlns="http://www.w3.org/2000/svg">
<path d="M12.0009 13.4299C12.4106 13.4299 12.8163 13.3492 13.1948 13.1924C13.5734 13.0357 13.9173 12.8058 14.207 12.5161C14.4968 12.2264 14.7266 11.8824 14.8834 11.5039C15.0402 11.1254 15.1209 10.7197 15.1209 10.3099C15.1209 9.90022 15.0402 9.49451 14.8834 9.11597C14.7266 8.73743 14.4968 8.39349 14.207 8.10377C13.9173 7.81405 13.5734 7.58423 13.1948 7.42744C12.8163 7.27064 12.4106 7.18994 12.0009 7.18994C11.1734 7.18994 10.3798 7.51865 9.79469 8.10377C9.20957 8.68888 8.88086 9.48247 8.88086 10.3099C8.88086 11.1374 9.20957 11.931 9.79469 12.5161C10.3798 13.1012 11.1734 13.4299 12.0009 13.4299Z" stroke="black" stroke-width="1.5"/>
<path d="M3.61971 8.49C5.58971 -0.169998 18.4197 -0.159997 20.3797 8.5C21.5297 13.58 18.3697 17.88 15.5997 20.54C14.6318 21.4735 13.3395 21.9952 11.9947 21.9952C10.65 21.9952 9.35763 21.4735 8.38971 20.54C5.62971 17.88 2.46971 13.57 3.61971 8.49Z" stroke="black" stroke-width="1.5"/>
</svg>
