<svg width="22" height="26" viewBox="0 0 22 26" fill="none" xmlns="http://www.w3.org/2000/svg">
<path d="M14.3933 9.98269L14.3933 9.98264C15.4226 8.95278 15.9341 7.71753 15.9341 6.26191C15.9341 4.80702 15.4227 3.57158 14.3932 2.5413L14.3933 9.98269ZM14.3933 9.98269C13.364 11.0127 12.1293 11.5242 10.6751 11.5242M14.3933 9.98269L10.6751 11.5242M10.6751 11.5242C9.22139 11.5242 7.98676 11.0126 6.95715 9.98278C5.92764 8.9529 5.41602 7.71747 5.41602 6.26191C5.41602 4.80677 5.92762 3.5713 6.95701 2.54138C7.98632 1.51153 9.22067 1 10.6751 1C12.129 1 13.3635 1.51148 14.3931 2.54112L10.6751 11.5242Z" stroke="black" stroke-width="2"/>
<path d="M20.0611 17.0027L20.061 17.0025C19.9149 16.5456 19.7148 16.0904 19.4654 15.6514C19.2149 15.2106 18.9287 14.8408 18.6201 14.5455L18.6199 14.5454C18.3183 14.2566 17.9366 14.0124 17.4729 13.8285L20.0611 17.0027ZM20.0611 17.0027C20.2087 17.4638 20.3344 17.9762 20.433 18.5259L20.0611 17.0027ZM7.25419 14.5174L7.25352 14.517C6.85735 14.2637 6.49793 14.0319 6.18542 13.8282L6.18522 13.8281C5.95188 13.6759 5.82289 13.6067 5.74628 13.5742C5.72554 13.5654 5.71263 13.5609 5.7057 13.5588C5.14682 13.5598 4.64506 13.6549 4.20653 13.8287L4.20637 13.8287C3.74327 14.0122 3.36155 14.2563 3.05954 14.5454L7.25419 14.5174ZM7.25419 14.5174C7.69161 14.7966 8.23967 15.0314 8.85464 15.2301L7.25419 14.5174ZM2.21446 15.651L2.2144 15.6511C1.9651 16.0902 1.765 16.5453 1.61868 17.0025L2.21446 15.651ZM2.21446 15.651C2.46416 15.2111 2.75049 14.8414 3.05934 14.5455L2.21446 15.651ZM1.04956 20.062L1.04955 20.0622C1.01672 20.5357 1 21.0289 1 21.5284C1 22.6581 1.35021 23.4786 1.9711 24.0704C2.59451 24.6639 3.44392 24.9999 4.58395 24.9999H17.0965C18.2365 24.9999 19.0855 24.6641 19.7091 24.0704L19.7092 24.0704C20.3299 23.4794 20.6804 22.6591 20.6804 21.5286L1.04956 20.062ZM1.04956 20.062C1.08178 19.5958 1.14764 19.0793 1.24678 18.5262L1.04956 20.062ZM20.6303 20.0624L20.6303 20.0616C20.5981 19.5966 20.5322 19.0802 20.4331 18.5262L20.6303 20.0624ZM20.6303 20.0624C20.6633 20.5329 20.6802 21.0263 20.6804 21.5282L20.6303 20.0624ZM15.9736 13.559C16.5322 13.56 17.0341 13.6549 17.4727 13.8284L15.9736 13.559ZM15.9736 13.559C15.9666 13.5611 15.9537 13.5656 15.9329 13.5744C15.8562 13.6069 15.7272 13.6761 15.4938 13.8282C15.4936 13.8283 15.4934 13.8284 15.4932 13.8286L15.9736 13.559ZM14.4252 14.5175L14.4263 14.5168L12.8245 15.23C13.44 15.0311 13.9877 14.7964 14.4252 14.5175ZM5.69928 13.5572C5.69921 13.5572 5.70025 13.5573 5.70261 13.558C5.70053 13.5576 5.69935 13.5573 5.69928 13.5572ZM15.9767 13.5582C15.979 13.5575 15.9801 13.5574 15.98 13.5574C15.9799 13.5575 15.9788 13.5578 15.9767 13.5582ZM10.8396 15.5498C11.506 15.5498 12.1739 15.4406 12.824 15.2302L8.85485 15.2302C9.50541 15.4406 10.1731 15.5498 10.8396 15.5498ZM1.2468 18.5261C1.34539 17.9766 1.47112 17.4642 1.61859 17.0028L1.2468 18.5261Z" stroke="black" stroke-width="2"/>
</svg>
